<?xml version="1.0" encoding="utf-8" ?>
<svg xmlns="http://www.w3.org/2000/svg" xmlns:xlink="http://www.w3.org/1999/xlink" width="1200" height="1350">
	<path fill="#A179DB" d="M590.273 0L607.155 0C621.875 2.60798 635.448 5.09111 649.118 11.5867C660.972 17.2193 672.256 24.1267 683.611 30.6883L732.673 59.0077L888.13 148.571L1059.38 247.214L1115.06 279.255C1125.71 285.382 1136.76 291.208 1147 298.018C1159.18 306.12 1169.86 315.873 1178.3 327.873C1180.13 330.477 1181.81 333.213 1183.44 335.943L1051.76 411.842C1030.2 424.255 1008.35 436.332 987.053 449.165C923.534 344.462 828.441 270.016 708.625 240.775Q703.308 239.467 697.96 238.291Q692.612 237.114 687.237 236.07Q681.862 235.025 676.463 234.112Q671.064 233.2 665.644 232.42Q660.224 231.641 654.787 230.995Q649.35 230.349 643.898 229.837Q638.446 229.324 632.984 228.946Q627.521 228.568 622.051 228.324Q616.581 228.081 611.106 227.971Q605.632 227.862 600.156 227.887Q594.681 227.912 589.207 228.072Q583.734 228.232 578.266 228.526Q572.798 228.82 567.34 229.249Q561.881 229.677 556.434 230.24Q550.987 230.802 545.556 231.498Q540.125 232.195 534.713 233.024Q529.3 233.853 523.91 234.815Q518.519 235.778 513.154 236.872Q507.789 237.966 502.452 239.192Q497.116 240.418 491.811 241.774Q486.506 243.131 481.236 244.617Q475.966 246.104 470.734 247.719Q465.503 249.335 460.312 251.078Q455.122 252.822 449.975 254.692Q444.829 256.563 439.731 258.56Q434.632 260.556 429.584 262.677Q424.537 264.798 419.542 267.043Q414.548 269.287 409.611 271.654Q404.673 274.021 399.795 276.508Q394.917 278.995 390.102 281.601Q385.287 284.208 380.537 286.931Q375.787 289.655 371.106 292.495Q366.432 295.333 361.83 298.285Q357.227 301.236 352.699 304.3Q348.17 307.363 343.718 310.537Q339.266 313.711 334.892 316.993Q330.519 320.274 326.228 323.662Q321.937 327.051 317.73 330.543Q313.523 334.035 309.403 337.629Q305.283 341.224 301.253 344.918Q297.222 348.612 293.283 352.404Q289.344 356.196 285.5 360.083Q281.655 363.971 277.907 367.951Q274.159 371.931 270.51 376.002Q266.86 380.073 263.312 384.233Q259.764 388.392 256.318 392.637Q252.873 396.882 249.533 401.21Q246.193 405.539 242.96 409.947Q239.727 414.356 236.603 418.843Q233.479 423.33 230.466 427.892Q227.453 432.454 224.553 437.088Q221.652 441.723 218.867 446.427Q216.081 451.131 213.412 455.902Q210.742 460.673 208.191 465.508Q205.639 470.343 203.207 475.239Q200.775 480.135 198.463 485.089Q196.152 490.044 193.962 495.053Q191.773 500.062 189.707 505.124Q187.642 510.186 185.701 515.296Q183.76 520.407 181.945 525.564Q180.129 530.721 178.441 535.92Q176.753 541.12 175.193 546.359Q173.633 551.599 172.202 556.875Q170.771 562.151 169.47 567.461Q168.48 571.536 167.566 575.628Q166.653 579.721 165.816 583.829Q164.979 587.938 164.219 592.062Q163.46 596.186 162.778 600.323Q162.095 604.46 161.491 608.61Q160.886 612.759 160.36 616.919Q159.833 621.079 159.384 625.248Q158.936 629.417 158.565 633.594Q158.195 637.771 157.903 641.954Q157.611 646.137 157.398 650.324Q157.184 654.512 157.049 658.703Q156.914 662.894 156.857 667.087Q156.801 671.279 156.823 675.473Q156.845 679.666 156.946 683.858Q157.047 688.049 157.226 692.239Q157.405 696.428 157.663 700.613Q157.921 704.798 158.257 708.978Q158.593 713.158 159.008 717.33Q159.422 721.503 159.915 725.667Q160.408 729.831 160.978 733.985Q161.549 738.14 162.197 742.282Q162.845 746.425 163.571 750.555Q164.297 754.685 165.1 758.8Q165.903 762.916 166.784 767.016Q167.664 771.115 168.621 775.198Q169.577 779.281 170.611 783.344Q171.644 787.408 172.753 791.452Q173.862 795.496 175.047 799.518Q176.232 803.541 177.492 807.54Q178.752 811.54 180.087 815.515Q181.421 819.49 182.83 823.439Q184.239 827.389 185.722 831.311C193.947 852.913 204.039 873.397 215.063 893.688C183.491 911.348 152.304 929.749 120.953 947.799L13.9381 1009.37C5.65931 993.771 2.81167 978.651 0 961.51L0 385.902C3.44236 364.535 6.53204 347.187 19.0109 328.815C27.3451 316.546 38.05 306.7 50.3464 298.486C60.8117 291.494 72.083 285.495 82.9876 279.21L138.685 247.14L310.997 148.008L467.501 57.8969L513.07 31.4971C523.562 25.3422 533.939 18.7304 544.895 13.4258C559.811 6.20332 574.126 3.06361 590.273 0Z"/>
	<path fill="#FEFEFF" d="M987.053 449.165L858.673 523.115C836.915 535.647 815.304 548.6 793.317 560.716C758.755 506.946 712.82 470.273 649.417 456.567Q646.752 455.989 644.073 455.476Q641.395 454.963 638.705 454.516Q636.014 454.069 633.314 453.688Q630.613 453.308 627.904 452.993Q625.195 452.679 622.48 452.431Q619.764 452.184 617.043 452.003Q614.321 451.822 611.597 451.707Q608.872 451.593 606.145 451.546Q603.418 451.499 600.691 451.518Q597.964 451.538 595.238 451.625Q592.513 451.711 589.79 451.865Q587.067 452.018 584.349 452.239Q581.63 452.459 578.918 452.746Q576.206 453.033 573.502 453.386Q570.798 453.74 568.103 454.159Q565.409 454.579 562.725 455.065Q560.042 455.55 557.371 456.102Q554.7 456.653 552.044 457.27Q549.387 457.887 546.746 458.568Q544.106 459.25 541.483 459.997Q538.86 460.743 536.256 461.554Q533.652 462.364 531.069 463.238Q528.486 464.113 525.925 465.05Q523.364 465.987 520.827 466.987Q518.29 467.987 515.778 469.049Q513.266 470.111 510.781 471.234Q508.296 472.358 505.84 473.542Q503.383 474.725 500.956 475.969Q498.529 477.213 496.134 478.516Q493.738 479.819 491.375 481.181Q489.013 482.542 486.684 483.961Q484.355 485.38 482.062 486.856Q479.765 488.336 477.505 489.873Q475.245 491.41 473.024 493.001Q470.803 494.593 468.621 496.239Q466.44 497.885 464.3 499.584Q462.16 501.283 460.062 503.035Q457.964 504.786 455.911 506.588Q453.857 508.391 451.848 510.243Q449.839 512.096 447.876 513.997Q445.914 515.899 443.998 517.848Q442.083 519.797 440.216 521.792Q438.35 523.788 436.533 525.829Q434.716 527.87 432.95 529.955Q431.184 532.04 429.47 534.168Q427.756 536.296 426.094 538.466Q424.433 540.635 422.826 542.845Q421.218 545.055 419.666 547.304Q418.114 549.552 416.617 551.839Q415.121 554.125 413.681 556.447Q412.241 558.77 410.859 561.127Q409.477 563.484 408.153 565.874Q406.83 568.265 405.565 570.687Q404.301 573.109 403.097 575.562Q401.892 578.015 400.749 580.496Q399.605 582.978 398.523 585.487Q397.441 587.996 396.421 590.531Q395.401 593.066 394.444 595.625Q393.487 598.184 392.593 600.766Q391.699 603.348 390.869 605.951Q390.039 608.554 389.274 611.177Q388.508 613.8 387.808 616.441Q387.107 619.082 386.471 621.739Q385.836 624.397 385.266 627.069C374.38 678.495 381.921 736.557 409.021 782.054Q410.368 784.446 411.774 786.803Q413.18 789.161 414.644 791.483Q416.107 793.805 417.628 796.09Q419.149 798.375 420.726 800.622Q422.303 802.868 423.935 805.075Q425.567 807.282 427.253 809.449Q428.939 811.615 430.678 813.738Q432.417 815.862 434.209 817.942Q436 820.022 437.842 822.057Q439.684 824.092 441.576 826.081Q443.468 828.069 445.409 830.011Q447.35 831.952 449.338 833.845Q451.326 835.738 453.36 837.581Q455.395 839.424 457.474 841.216Q459.553 843.008 461.676 844.749Q463.799 846.489 465.965 848.176Q468.13 849.863 470.337 851.496Q472.544 853.129 474.79 854.707Q477.036 856.285 479.321 857.807Q481.606 859.328 483.927 860.793Q486.249 862.258 488.606 863.665Q490.963 865.072 493.355 866.421Q495.746 867.769 498.17 869.057Q500.594 870.346 503.049 871.575Q505.504 872.803 507.989 873.97Q510.474 875.137 512.986 876.243Q515.499 877.348 518.039 878.391Q520.578 879.434 523.143 880.414Q525.707 881.393 528.295 882.309Q530.883 883.225 533.493 884.077Q536.103 884.929 538.733 885.716Q541.363 886.502 544.012 887.224Q546.637 887.936 549.278 888.584Q551.919 889.232 554.576 889.815Q557.232 890.397 559.902 890.915Q562.572 891.432 565.254 891.884Q567.935 892.336 570.628 892.722Q573.32 893.108 576.02 893.428Q578.721 893.748 581.429 894.002Q584.136 894.255 586.85 894.443Q589.563 894.63 592.28 894.75Q594.997 894.871 597.716 894.925Q600.435 894.979 603.154 894.966Q605.874 894.953 608.592 894.874Q611.311 894.794 614.027 894.648Q616.742 894.502 619.454 894.29Q622.165 894.077 624.87 893.798Q627.575 893.519 630.273 893.174Q632.971 892.829 635.659 892.418Q638.347 892.006 641.025 891.53Q643.702 891.052 646.367 890.51Q649.032 889.967 651.683 889.36Q654.334 888.752 656.969 888.08Q659.604 887.407 662.222 886.67Q664.839 885.933 667.438 885.133Q670.037 884.332 672.616 883.468Q675.194 882.603 677.751 881.676Q680.308 880.749 682.841 879.759Q685.374 878.769 687.882 877.718Q690.39 876.667 692.871 875.554Q695.353 874.441 697.806 873.268Q700.26 872.095 702.684 870.862Q705.108 869.629 707.5 868.337Q709.893 867.045 712.254 865.695C742.525 848.312 778.642 815.336 794.206 783.747C803.518 787.429 812.809 794.13 821.535 799.184L881.237 833.778L954.04 875.971C964.186 881.843 978.939 889.024 987.927 895.972C947.788 961.898 897.421 1015.36 830.946 1055.3Q826.261 1058.11 821.508 1060.8Q816.755 1063.49 811.938 1066.06Q807.12 1068.63 802.241 1071.09Q797.362 1073.54 792.424 1075.88Q787.487 1078.21 782.493 1080.42Q777.499 1082.63 772.453 1084.72Q767.407 1086.81 762.311 1088.77Q757.215 1090.74 752.072 1092.58Q746.929 1094.42 741.743 1096.13Q736.557 1097.84 731.33 1099.43Q726.103 1101.01 720.839 1102.47Q715.575 1103.92 710.277 1105.25Q704.979 1106.58 699.65 1107.77Q694.32 1108.97 688.964 1110.03Q683.607 1111.1 678.225 1112.03Q672.844 1112.97 667.441 1113.77Q662.039 1114.57 656.618 1115.24Q651.197 1115.91 645.762 1116.44Q640.327 1116.98 634.88 1117.38Q629.433 1117.78 623.977 1118.05Q618.522 1118.32 613.062 1118.45Q607.602 1118.59 602.14 1118.59Q596.678 1118.59 591.218 1118.45Q585.758 1118.32 580.303 1118.05Q574.848 1117.79 569.401 1117.38Q563.954 1116.98 558.518 1116.45Q553.083 1115.91 547.662 1115.25Q542.241 1114.58 536.838 1113.78Q531.435 1112.98 526.054 1112.05Q520.672 1111.11 515.315 1110.05Q509.958 1108.99 504.629 1107.79Q499.299 1106.6 494.001 1105.27Q489.564 1104.16 485.15 1102.95Q480.736 1101.75 476.348 1100.46Q471.961 1099.16 467.6 1097.78Q463.24 1096.4 458.909 1094.93Q454.577 1093.45 450.278 1091.89Q445.978 1090.33 441.711 1088.68Q437.444 1087.03 433.212 1085.3Q428.979 1083.56 424.784 1081.74Q420.588 1079.91 416.431 1078Q412.274 1076.1 408.157 1074.1Q404.039 1072.11 399.964 1070.03Q395.889 1067.95 391.857 1065.79Q387.825 1063.63 383.839 1061.39Q379.852 1059.14 375.913 1056.82Q371.973 1054.49 368.082 1052.09Q364.191 1049.68 360.351 1047.2Q356.51 1044.71 352.721 1042.15Q348.932 1039.59 345.197 1036.95Q341.461 1034.31 337.781 1031.59Q334.1 1028.87 330.477 1026.08Q326.853 1023.29 323.287 1020.43Q319.722 1017.56 316.216 1014.62Q312.71 1011.68 309.265 1008.67Q305.82 1005.67 302.437 1002.59Q299.055 999.507 295.737 996.359Q292.418 993.21 289.165 989.995Q285.912 986.779 282.726 983.497Q279.54 980.215 276.422 976.869Q273.303 973.522 270.255 970.112Q267.206 966.702 264.228 963.23Q261.25 959.759 258.344 956.226Q255.438 952.694 252.605 949.103C238.684 931.479 226.616 912.909 215.063 893.688C204.039 873.397 193.947 852.913 185.722 831.311Q184.239 827.389 182.83 823.439Q181.421 819.49 180.087 815.515Q178.752 811.54 177.492 807.54Q176.232 803.541 175.047 799.518Q173.862 795.496 172.753 791.452Q171.644 787.408 170.611 783.344Q169.577 779.281 168.621 775.198Q167.664 771.115 166.784 767.016Q165.903 762.916 165.1 758.8Q164.297 754.685 163.571 750.555Q162.845 746.425 162.197 742.282Q161.549 738.14 160.978 733.985Q160.408 729.831 159.915 725.667Q159.422 721.503 159.008 717.33Q158.593 713.158 158.257 708.978Q157.921 704.798 157.663 700.613Q157.405 696.428 157.226 692.239Q157.047 688.049 156.946 683.858Q156.845 679.666 156.823 675.473Q156.801 671.279 156.857 667.087Q156.914 662.894 157.049 658.703Q157.184 654.512 157.398 650.324Q157.611 646.137 157.903 641.954Q158.195 637.771 158.565 633.594Q158.936 629.417 159.384 625.248Q159.833 621.079 160.36 616.919Q160.886 612.759 161.491 608.61Q162.095 604.46 162.778 600.323Q163.46 596.186 164.219 592.062Q164.979 587.938 165.816 583.829Q166.653 579.721 167.566 575.628Q168.48 571.536 169.47 567.461Q170.771 562.151 172.202 556.875Q173.633 551.599 175.193 546.359Q176.753 541.12 178.441 535.92Q180.129 530.721 181.945 525.564Q183.76 520.407 185.701 515.296Q187.642 510.186 189.707 505.124Q191.773 500.062 193.962 495.053Q196.152 490.044 198.463 485.089Q200.775 480.135 203.207 475.239Q205.639 470.343 208.191 465.508Q210.742 460.673 213.412 455.902Q216.081 451.131 218.867 446.427Q221.652 441.723 224.553 437.088Q227.453 432.454 230.466 427.892Q233.479 423.33 236.603 418.843Q239.727 414.356 242.96 409.948Q246.193 405.539 249.533 401.21Q252.873 396.882 256.318 392.637Q259.764 388.392 263.312 384.233Q266.86 380.073 270.51 376.002Q274.159 371.931 277.907 367.951Q281.655 363.971 285.5 360.083Q289.344 356.196 293.283 352.404Q297.222 348.612 301.253 344.918Q305.283 341.224 309.403 337.629Q313.523 334.035 317.73 330.543Q321.937 327.051 326.228 323.662Q330.519 320.274 334.892 316.993Q339.266 313.711 343.718 310.537Q348.17 307.363 352.699 304.3Q357.227 301.236 361.83 298.285Q366.432 295.333 371.106 292.495Q375.787 289.655 380.537 286.931Q385.287 284.208 390.102 281.601Q394.917 278.995 399.795 276.508Q404.673 274.021 409.611 271.654Q414.548 269.287 419.542 267.043Q424.537 264.798 429.584 262.677Q434.632 260.556 439.731 258.56Q444.829 256.563 449.975 254.692Q455.122 252.822 460.312 251.078Q465.503 249.335 470.734 247.719Q475.966 246.104 481.236 244.617Q486.506 243.131 491.811 241.774Q497.116 240.418 502.452 239.192Q507.789 237.966 513.154 236.872Q518.519 235.778 523.91 234.815Q529.3 233.853 534.713 233.024Q540.125 232.195 545.556 231.498Q550.987 230.802 556.434 230.24Q561.881 229.677 567.34 229.249Q572.798 228.82 578.266 228.526Q583.734 228.232 589.207 228.072Q594.681 227.912 600.156 227.887Q605.632 227.862 611.106 227.971Q616.581 228.081 622.051 228.324Q627.521 228.568 632.984 228.946Q638.446 229.324 643.898 229.837Q649.35 230.349 654.787 230.995Q660.224 231.641 665.644 232.42Q671.064 233.2 676.463 234.112Q681.862 235.025 687.237 236.07Q692.612 237.114 697.96 238.291Q703.308 239.467 708.625 240.775C828.441 270.016 923.534 344.462 987.053 449.165Z"/>
	<path fill="#390092" d="M1183.44 335.943C1192.06 350.908 1196.5 367.676 1197.75 384.855C1198.53 395.593 1198.08 406.581 1198.07 417.353L1198.04 472.941L1198.07 646.745L1198.11 853.394L1198.12 916.995C1198.15 939.576 1199.85 963.093 1193.95 985.076Q1192.27 991.46 1189.8 997.58Q1187.33 1003.7 1184.1 1009.46C1171.03 1002.93 1158.47 994.93 1145.84 987.582L1087.06 953.636L1026.17 918.312C1013.44 910.98 1000.24 903.972 987.927 895.972C978.939 889.024 964.186 881.843 954.04 875.971L881.237 833.778L821.535 799.184C812.809 794.13 803.518 787.429 794.206 783.747C788.003 781.156 781.725 776.716 775.897 773.341L735.309 749.807L600.369 671.72L793.317 560.716C815.304 548.6 836.915 535.647 858.673 523.115L987.053 449.165C1008.35 436.332 1030.2 424.255 1051.76 411.842L1183.44 335.943ZM914.732 545.145L914.734 608.328L851.663 608.333L851.691 639.947L914.743 639.934L914.735 702.941C893.727 702.948 872.647 702.571 851.649 703.022L851.689 734.581L914.76 734.573C914.756 755.607 914.469 776.679 914.778 797.708L946.305 797.699L946.355 734.539L1009.49 734.572L1009.48 797.704C1018.87 797.753 1032.18 798.971 1041.12 797.476L1041.14 734.546L1104.31 734.575L1104.33 703.003C1083.28 702.895 1062.19 702.744 1041.14 703.018L1041.14 639.95L1104.31 639.921L1104.31 608.346L1041.13 608.323L1041.12 545.135L1009.48 545.145L1009.47 608.324L946.338 608.325L946.325 545.129L914.732 545.145Z"/>
	<path fill="#A179DB" d="M409.021 782.054C381.921 736.557 374.38 678.495 385.266 627.069Q385.836 624.397 386.471 621.739Q387.107 619.082 387.808 616.441Q388.508 613.8 389.274 611.177Q390.039 608.554 390.869 605.951Q391.699 603.348 392.593 600.766Q393.487 598.184 394.444 595.625Q395.401 593.066 396.421 590.531Q397.441 587.996 398.523 585.487Q399.605 582.978 400.749 580.496Q401.892 578.015 403.097 575.562Q404.301 573.109 405.565 570.687Q406.83 568.265 408.153 565.874Q409.477 563.484 410.859 561.127Q412.241 558.77 413.681 556.447Q415.121 554.125 416.617 551.839Q418.114 549.552 419.666 547.304Q421.218 545.055 422.826 542.845Q424.433 540.635 426.094 538.466Q427.756 536.296 429.47 534.168Q431.184 532.04 432.95 529.955Q434.716 527.87 436.533 525.829Q438.35 523.788 440.216 521.792Q442.083 519.797 443.998 517.848Q445.914 515.899 447.876 513.997Q449.839 512.096 451.848 510.243Q453.857 508.391 455.911 506.588Q457.964 504.786 460.062 503.035Q462.16 501.283 464.3 499.584Q466.44 497.885 468.621 496.239Q470.803 494.593 473.024 493.001Q475.245 491.41 477.505 489.873Q479.765 488.336 482.062 486.856Q484.355 485.38 486.684 483.961Q489.013 482.542 491.375 481.181Q493.738 479.819 496.134 478.516Q498.529 477.213 500.956 475.969Q503.383 474.725 505.84 473.542Q508.296 472.358 510.781 471.234Q513.266 470.111 515.778 469.049Q518.29 467.987 520.827 466.987Q523.364 465.987 525.925 465.05Q528.486 464.113 531.069 463.238Q533.652 462.364 536.256 461.554Q538.86 460.743 541.483 459.997Q544.106 459.25 546.747 458.568Q549.387 457.887 552.044 457.27Q554.7 456.653 557.371 456.102Q560.042 455.55 562.725 455.065Q565.409 454.579 568.103 454.159Q570.798 453.74 573.502 453.386Q576.206 453.033 578.918 452.746Q581.63 452.459 584.349 452.239Q587.067 452.018 589.79 451.865Q592.513 451.711 595.238 451.625Q597.964 451.538 600.691 451.518Q603.418 451.499 606.145 451.546Q608.872 451.593 611.597 451.707Q614.321 451.822 617.043 452.003Q619.764 452.184 622.48 452.431Q625.195 452.679 627.904 452.993Q630.613 453.308 633.314 453.688Q636.014 454.069 638.705 454.516Q641.395 454.963 644.073 455.476Q646.752 455.989 649.417 456.567C712.82 470.273 758.755 506.946 793.317 560.716L600.369 671.72L475.193 743.813C453.151 756.499 430.697 768.774 409.021 782.054Z"/>
	<path fill="#FEFEFF" d="M914.734 608.328L914.732 545.145L946.325 545.129L946.338 608.325L1009.47 608.324L1009.48 545.145L1041.12 545.135L1041.13 608.323L1104.31 608.346L1104.31 639.921L1041.14 639.95L1041.14 703.018C1062.19 702.744 1083.28 702.895 1104.33 703.003L1104.31 734.575L1041.14 734.546L1041.12 797.476C1032.18 798.971 1018.87 797.753 1009.48 797.704L1009.49 734.572L946.355 734.539L946.305 797.699L914.778 797.708C914.469 776.679 914.756 755.607 914.76 734.573L851.689 734.581L851.649 703.022C872.647 702.571 893.727 702.948 914.735 702.941L914.743 639.934L851.691 639.947L851.663 608.333L914.734 608.328ZM946.35 639.959L946.347 703.002L1009.48 702.944L1009.49 639.936L946.35 639.959Z"/>
	<path fill="#390092" d="M946.347 703.002L946.35 639.959L1009.49 639.936L1009.48 702.944L946.347 703.002Z"/>
	<path fill="#290069" d="M409.021 782.054C430.697 768.774 453.151 756.499 475.193 743.813L600.369 671.72L735.309 749.807L775.897 773.341C781.725 776.716 788.003 781.156 794.206 783.747C778.642 815.336 742.525 848.312 712.254 865.695Q709.893 867.045 707.5 868.337Q705.108 869.629 702.684 870.862Q700.26 872.095 697.806 873.268Q695.353 874.441 692.871 875.554Q690.39 876.667 687.882 877.718Q685.374 878.769 682.841 879.759Q680.308 880.749 677.751 881.676Q675.194 882.603 672.616 883.468Q670.037 884.332 667.438 885.133Q664.839 885.933 662.222 886.67Q659.604 887.407 656.969 888.08Q654.334 888.752 651.683 889.36Q649.032 889.968 646.367 890.51Q643.702 891.052 641.025 891.53Q638.347 892.006 635.659 892.418Q632.971 892.829 630.273 893.174Q627.575 893.519 624.87 893.798Q622.165 894.077 619.454 894.29Q616.742 894.502 614.027 894.648Q611.311 894.794 608.592 894.874Q605.874 894.953 603.154 894.966Q600.435 894.979 597.716 894.925Q594.997 894.871 592.28 894.75Q589.563 894.63 586.85 894.443Q584.136 894.255 581.429 894.002Q578.721 893.748 576.02 893.428Q573.32 893.108 570.628 892.722Q567.935 892.336 565.254 891.884Q562.572 891.432 559.902 890.915Q557.232 890.397 554.576 889.815Q551.919 889.232 549.278 888.584Q546.637 887.936 544.012 887.224Q541.363 886.502 538.733 885.716Q536.103 884.929 533.493 884.077Q530.883 883.225 528.295 882.309Q525.707 881.393 523.143 880.414Q520.578 879.434 518.039 878.391Q515.499 877.348 512.986 876.243Q510.474 875.137 507.989 873.97Q505.504 872.803 503.049 871.575Q500.594 870.346 498.17 869.057Q495.746 867.769 493.355 866.421Q490.963 865.072 488.606 863.665Q486.249 862.258 483.927 860.793Q481.606 859.328 479.321 857.807Q477.036 856.285 474.79 854.707Q472.544 853.129 470.337 851.496Q468.13 849.863 465.965 848.176Q463.799 846.489 461.676 844.749Q459.553 843.008 457.474 841.216Q455.395 839.424 453.36 837.581Q451.326 835.738 449.338 833.845Q447.35 831.952 445.409 830.011Q443.468 828.069 441.576 826.081Q439.684 824.092 437.842 822.057Q436 820.022 434.209 817.942Q432.417 815.862 430.678 813.738Q428.939 811.615 427.253 809.449Q425.567 807.282 423.935 805.075Q422.303 802.868 420.726 800.622Q419.149 798.375 417.628 796.09Q416.107 793.805 414.644 791.483Q413.18 789.161 411.774 786.803Q410.368 784.446 409.021 782.054Z"/>
	<path fill="#290069" d="M13.9381 1009.37L120.953 947.799C152.304 929.749 183.491 911.348 215.063 893.688C226.616 912.909 238.684 931.479 252.605 949.103Q255.438 952.694 258.344 956.226Q261.25 959.759 264.228 963.23Q267.206 966.702 270.255 970.112Q273.303 973.522 276.422 976.869Q279.54 980.215 282.726 983.497Q285.912 986.779 289.165 989.995Q292.418 993.21 295.737 996.359Q299.055 999.507 302.437 1002.59Q305.82 1005.67 309.265 1008.67Q312.71 1011.68 316.216 1014.62Q319.722 1017.56 323.287 1020.43Q326.853 1023.29 330.477 1026.08Q334.1 1028.87 337.781 1031.59Q341.461 1034.31 345.197 1036.95Q348.932 1039.59 352.721 1042.15Q356.51 1044.71 360.351 1047.2Q364.191 1049.68 368.082 1052.09Q371.973 1054.49 375.913 1056.82Q379.852 1059.14 383.839 1061.39Q387.825 1063.63 391.857 1065.79Q395.889 1067.95 399.964 1070.03Q404.039 1072.11 408.157 1074.1Q412.274 1076.1 416.431 1078Q420.588 1079.91 424.784 1081.74Q428.979 1083.56 433.212 1085.3Q437.444 1087.03 441.711 1088.68Q445.978 1090.33 450.277 1091.89Q454.577 1093.45 458.909 1094.93Q463.24 1096.4 467.6 1097.78Q471.961 1099.16 476.348 1100.46Q480.736 1101.75 485.15 1102.95Q489.564 1104.16 494.001 1105.27Q499.299 1106.6 504.629 1107.79Q509.958 1108.99 515.315 1110.05Q520.672 1111.11 526.054 1112.05Q531.435 1112.98 536.838 1113.78Q542.241 1114.58 547.662 1115.25Q553.083 1115.91 558.518 1116.45Q563.954 1116.98 569.401 1117.38Q574.848 1117.79 580.303 1118.05Q585.758 1118.32 591.218 1118.45Q596.678 1118.59 602.14 1118.59Q607.602 1118.59 613.062 1118.45Q618.522 1118.32 623.977 1118.05Q629.433 1117.78 634.88 1117.38Q640.327 1116.98 645.762 1116.44Q651.197 1115.91 656.618 1115.24Q662.039 1114.57 667.441 1113.77Q672.844 1112.97 678.225 1112.03Q683.607 1111.1 688.964 1110.03Q694.32 1108.97 699.65 1107.77Q704.979 1106.58 710.277 1105.25Q715.575 1103.92 720.839 1102.47Q726.103 1101.01 731.33 1099.43Q736.557 1097.84 741.743 1096.13Q746.929 1094.42 752.072 1092.58Q757.215 1090.74 762.311 1088.77Q767.407 1086.81 772.453 1084.72Q777.499 1082.63 782.493 1080.42Q787.486 1078.21 792.424 1075.88Q797.362 1073.54 802.241 1071.09Q807.12 1068.63 811.938 1066.06Q816.755 1063.49 821.508 1060.8Q826.261 1058.11 830.946 1055.3C897.421 1015.36 947.788 961.898 987.927 895.972C1000.24 903.972 1013.44 910.98 1026.17 918.312L1087.06 953.636L1145.84 987.582C1158.47 994.93 1171.03 1002.93 1184.1 1009.46C1176.88 1023.09 1165.63 1035.36 1153.14 1044.34C1134.29 1057.89 1109.23 1070.65 1088.81 1082.4L971.55 1149.91L758.688 1272.56C725.577 1291.6 692.746 1311.6 659.195 1329.82C630.071 1345.64 598.815 1351.42 566.635 1341.73C546.331 1335.62 528.87 1324.25 510.734 1313.66L462.364 1285.7L285.184 1183.68L127.592 1093.03L79.4096 1065.3C68.5939 1059.06 57.4794 1053.08 47.2133 1045.96C33.6672 1036.56 21.7287 1023.95 13.9381 1009.37Z"/>
</svg>
