<svg xmlns="http://www.w3.org/2000/svg" xmlns:xlink="http://www.w3.org/1999/xlink" viewBox="294.61 246.11 399.92 465.03">
	<path transform="matrix(0.964844 0 0 0.964844 0.00012207 0)" d="M635.115 302.78C637.481 304.794 658.83 312.415 663.23 313.546C659.449 314.242 655.353 313.011 651.454 313.347C645.148 310.941 640.464 306.758 633.532 305.712C633.725 304.641 634.53 303.693 635.115 302.78Z" fill="#3e7b27"/>
	<path fill="#3e7b27" transform="matrix(0.964844 0 0 0.964844 0.00012207 0)" d="M651.454 313.347C655.353 313.011 659.449 314.242 663.23 313.546C668.753 314.733 687.021 323.138 691.463 326.24C692.679 327.089 693.657 327.806 693.903 329.313C690.267 332.046 681.457 336.449 677.012 337.409C676.139 337.598 674.554 338.027 673.854 337.336C673.516 337.001 672.96 334.49 672.768 333.92C671.876 331.276 670.744 329.174 669.129 326.918C664.671 320.689 657.873 317.2 651.454 313.347Z"/>
	<path fill="#3e7b27" transform="matrix(0.964844 0 0 0.964844 0.00012207 0)" d="M577.443 309.777C583.616 309.575 589.823 308.978 595.997 309.352C601.84 309.706 608.22 311.244 614.031 310.906C627.119 310.587 646.881 311.331 656.867 321.119C670.125 334.115 667.82 356.801 667.573 373.749Q667.536 375.807 667.411 377.862C671.078 380.185 676.341 382.895 677.412 387.526C678.01 390.112 676.963 392.684 675.571 394.834C674.78 396.056 673.721 397.092 672.698 398.119C671.793 411.093 675.142 426.626 672.223 438.911C670.417 439.845 668.08 441.478 665.985 440.802C663.513 440.004 661.722 435.801 659.904 433.925C658.675 436.024 656.833 439.911 654.217 440.441C652.815 440.724 651.677 440.207 650.59 439.362C649.498 438.512 648.706 437.663 648.542 436.258C648.105 432.514 649.078 428.074 649.27 424.26C649.707 415.606 648.886 406.536 651.037 398.08C649.363 396.436 648.154 394.89 646.973 392.863L647.171 387.318C649.772 383.586 652.613 380.8 656.058 377.861C655.979 372.869 655.599 367.899 655.555 362.907C655.458 351.892 656.589 338.208 647.672 329.849C642.463 324.966 630.905 323.431 623.917 322.5C605.414 323.314 586.749 321.971 568.19 322.468C551.04 322.927 534.139 325.557 516.895 324.495C515.187 324.726 513.224 324.628 511.557 324.182C509.86 323.728 508.716 322.945 507.784 321.449C507.846 320.67 507.722 320.24 508.266 319.615C509.466 318.237 511.468 317.435 513.043 316.554C515.188 315.353 517.474 313.88 519.785 313.086C529.039 309.906 545.724 311.677 555.895 311.367C563.094 311.148 570.254 310.171 577.443 309.777ZM516.895 324.495C534.139 325.557 551.04 322.927 568.19 322.468C586.749 321.971 605.414 323.314 623.917 322.5C623.62 322.28 623.382 321.942 623.027 321.84C620.674 321.169 616.119 321.747 613.564 321.704C598.598 321.453 583.515 321.088 568.556 321.605C559.31 321.925 550.125 323.06 540.87 323.074C541.088 323.83 540.87 323.441 541.79 324.047C540.198 324.142 539.232 324.02 537.706 323.558C537.561 323.28 537.733 322.634 537.771 322.318C531.666 322.083 525.672 322.622 519.599 323.189L519.73 323.255C519.093 323.384 518.814 323.589 518.217 323.289C517.75 323.68 517.304 324.042 516.895 324.495Z"/>
	<path transform="matrix(0.964844 0 0 0.964844 0.00012207 0)" d="M516.895 324.495C517.304 324.042 517.75 323.68 518.217 323.289C518.814 323.589 519.093 323.384 519.73 323.255L519.599 323.189C525.672 322.622 531.666 322.083 537.771 322.318C537.733 322.634 537.561 323.28 537.706 323.558C539.232 324.02 540.198 324.142 541.79 324.047C540.87 323.441 541.088 323.83 540.87 323.074C550.125 323.06 559.31 321.925 568.556 321.605C583.515 321.088 598.598 321.453 613.564 321.704C616.119 321.747 620.674 321.169 623.027 321.84C623.382 321.942 623.62 322.28 623.917 322.5C605.414 323.314 586.749 321.971 568.19 322.468C551.04 322.927 534.139 325.557 516.895 324.495Z" fill="#3e7b27"/>
	<path fill="#3e7b27" transform="matrix(0.964844 0 0 0.964844 0.00012207 0)" d="M403.754 376.605C407.396 378.691 411.901 380.095 415.79 381.751L440.283 392.36C450.032 396.552 459.5 401.341 469.233 405.545C475.822 408.39 482.626 410.841 489.344 413.367C494.666 415.368 500.134 417.674 505.666 418.986C509.787 419.963 516.251 420.035 520.429 419.244C531.457 417.158 547.674 408.443 558.424 403.722C567.85 399.583 577.403 395.99 586.955 392.185Q597.336 387.942 607.624 383.48C611.713 381.682 617.568 377.862 621.889 377.262C622.653 378.727 621.978 408.191 621.84 412.258C619.917 414.594 618.265 417.21 616.547 419.703C610.218 428.587 600.84 438.614 591.674 444.579C575.921 454.831 555.245 461.902 536.537 464.515C525.627 466.039 501.061 465.822 490.149 464.434C485.071 463.788 479.961 462.528 474.959 461.441C467.429 459.804 459.505 457.666 452.384 454.692C437.049 448.286 416.881 434.918 407.959 420.806C406.406 418.35 405.223 415.878 404.628 413.016C403.665 408.383 402.854 380.731 403.754 376.605Z"/>
	<path fill="#3e7b27" transform="matrix(0.964844 0 0 0.964844 0.00012207 0)" d="M507.034 641.762C511.71 641.636 515.891 643.702 520.083 645.58C533.694 651.677 546.207 659.939 559.279 667.064C571.812 673.897 587.032 679.399 597.819 688.829C601.094 691.692 602.878 695.76 602.994 700.076C603.288 711.086 601.511 722.616 593.403 730.636C591.106 732.909 588.088 735.259 584.893 736.04C578.354 737.639 560.256 736.506 552.639 736.53C541.262 736.566 529.972 737.184 518.57 737.026C511.071 737.17 503.574 736.178 496.058 736.1L455.556 735.741C449.043 735.653 441.35 736.25 434.976 734.783C431.782 734.048 429.336 731.362 427.666 728.672C422.77 720.787 422.754 711.673 422.829 702.738C422.846 700.7 422.578 697.543 423.338 695.689C424.525 692.794 427.877 690.144 430.389 688.313C438.802 682.183 448.175 677.699 457.031 672.312L491.314 651.636C496.607 648.418 501.65 644.839 507.034 641.762Z"/>
	<path fill="#3e7b27" transform="matrix(0.964844 0 0 0.964844 0.00012207 0)" d="M513.623 404.771C502.47 402.634 483.008 392.801 471.902 387.922L411.734 362.072C406.214 359.694 400.854 356.954 395.294 354.665C389.623 352.33 383.761 350.494 378.012 348.368C372.189 346.214 366.468 343.816 360.594 341.798C352.789 339.118 344.637 336.756 337.142 333.297C334.964 332.292 331.008 330.743 330.133 328.389C330.332 327.94 330.417 327.671 330.774 327.277C332.412 325.467 336.289 323.968 338.532 323.064C348.132 319.192 357.962 315.351 367.694 311.854C374.114 309.547 380.644 307.517 386.972 304.96L446.754 280.596C459.066 275.477 502.012 255.792 512.272 255.125C512.509 255.109 512.747 255.108 512.983 255.093C521.744 254.526 559.943 272.936 570.985 277.432C573.837 278.593 576.916 278.923 579.773 280.012C583.498 281.432 587.112 283.403 590.839 284.916L635.115 302.78C634.53 303.693 633.725 304.641 633.532 305.712C627.365 305.211 622.487 307.043 618.274 306.85C616.67 307.354 614.766 307.685 613.717 309.088C613.736 309.83 613.758 310.198 614.031 310.906C608.22 311.244 601.84 309.706 595.997 309.352C589.823 308.978 583.616 309.575 577.443 309.777L577.087 306.98C561.225 302.325 545.756 304.327 529.627 303.329C525.952 303.102 522.533 300.838 518.892 300.587C515.104 300.325 511.483 301.137 507.681 300.416Q506.482 301.059 505.345 301.805C500.275 305.097 496.091 309.299 494.93 315.454C493.75 321.717 494.223 328.671 498.024 333.98C503.554 341.705 510.426 340.701 518.678 342.103C525.014 339.372 530.181 335.226 537.108 333.799C546.047 331.958 555.184 333.772 564.162 333.938C569.33 334.033 574.54 333.408 579.709 333.273C596.204 332.842 612.969 333.407 629.025 337.428C633.724 338.605 639.945 340.404 642.428 344.944C643.501 346.906 643.397 348.744 642.865 350.838C640.544 352.544 623.276 358.051 618.635 360.001C613.533 362.144 608.659 364.766 603.602 367C598.631 369.195 593.377 370.697 588.401 372.896C570.81 380.668 553.243 388.34 535.489 395.741C528.118 398.814 521.12 402.028 513.623 404.771Z"/>
	<defs fill="#3e7b27">
		<linearGradient id="gradient_0" gradientUnits="userSpaceOnUse" x1="600.13446" y1="305.32169" x2="604.29852" y2="311.85806" fill="#3e7b27">
			<stop offset="0" stop-color="#3e7b27" fill="#3e7b27"/>
			<stop offset="1" stop-color="#3e7b27" fill="#3e7b27"/>
		</linearGradient>
	</defs>
	<path fill="#3e7b27" transform="matrix(0.964844 0 0 0.964844 0.00012207 0)" d="M577.087 306.98C577.298 306.747 577.446 306.566 577.732 306.378C580.481 304.573 613.944 305.952 618.274 306.85C616.67 307.354 614.766 307.685 613.717 309.088C613.736 309.83 613.758 310.198 614.031 310.906C608.22 311.244 601.84 309.706 595.997 309.352C589.823 308.978 583.616 309.575 577.443 309.777L577.087 306.98Z"/>
	<path fill="#3e7b27" transform="matrix(0.964844 0 0 0.964844 0.00012207 0)" d="M703.641 418.684C703.938 418.659 704.234 418.611 704.533 418.608C710.744 418.553 714.77 423.091 718.832 427.094C720.161 439.759 719.305 452.761 719.376 465.509C719.445 478.034 720.396 491.264 719.355 503.71C718.393 515.208 713.742 532.249 710.605 543.543C707.872 553.385 705.245 563.308 700.871 572.579C689.265 597.178 662.731 612.886 642.446 629.954C627.205 642.778 613.302 657.25 598.04 670.011C587.06 660.437 568.815 651.538 555.85 644.182C547.915 639.681 539.808 634.352 531.474 630.688C528.667 629.454 526.1 628.825 523.064 628.525C523.036 623.471 523.519 618.501 523.701 613.46C524.546 590.116 527.68 573.654 541.179 553.772C551.353 541.334 563.532 537.335 574.764 527.269C581.826 520.941 588.462 514.103 595.339 507.574C599.017 504.082 602.952 500.873 606.623 497.379C613.341 490.984 619.324 483.273 627.51 478.66C631.989 476.136 637.607 474.56 642.68 476.092C648.336 477.799 653.443 483.535 655.985 488.753C662.353 501.825 647.994 510.817 640.129 518.674C633.407 525.387 626.968 532.392 620.173 539.03C614.964 544.118 609.359 548.814 604.444 554.195C603.353 555.389 602.148 556.656 601.711 558.253Q601.59 558.682 601.516 559.122Q601.441 559.562 601.414 560.008Q601.387 560.453 601.408 560.899Q601.428 561.344 601.496 561.786Q601.564 562.226 601.679 562.658Q601.794 563.089 601.954 563.505Q602.114 563.922 602.318 564.319Q602.521 564.716 602.766 565.089C604.616 567.866 607.705 569.718 610.99 570.171C619.886 571.397 620.578 563.108 625.345 558.055C627.844 555.407 631.281 553.348 634.205 551.189C639.016 547.635 643.369 543.504 647.887 539.594C660.344 528.813 672.711 518.988 680.408 503.987C681.556 501.75 683.187 499.026 683.497 496.508C684.329 489.743 683.068 483.283 683.18 476.552C683.249 472.409 684.17 468.234 684.637 464.119C685.233 458.87 685.581 453.444 686.019 448.174C686.404 443.535 685.643 438.827 686.229 434.202C687.056 427.675 691.497 423.518 696.457 419.754L703.641 418.684Z"/>
	<path fill="#3e7b27" transform="matrix(0.964844 0 0 0.964844 0.00012207 0)" d="M319.747 418.605C320.445 418.523 320.432 418.506 321.251 418.519C328.383 418.632 336.218 425.331 338.295 431.967C340.305 438.392 339.646 446.014 339.626 452.657C339.587 465.498 338.885 484.196 341.945 496.366C347.276 517.57 375.079 536.726 390.836 550.602C392.693 552.238 395.11 553.067 396.815 554.846C401.68 559.921 409 569.077 416.442 569.475C418.359 569.578 419.961 569.046 421.312 567.658C423.973 564.923 423.386 560.097 423.213 556.657C419.656 551.165 412.769 546.518 407.92 542.124C402.202 536.944 396.848 531.358 391.155 526.141C385.804 521.238 379.982 516.596 374.988 511.34C370.072 506.166 366.937 500.766 367.263 493.377C367.495 488.133 370.113 483.933 374.038 480.558C378.341 476.859 384.887 475.479 390.473 475.907C393.911 476.171 396.064 477.112 398.757 479.163C405.549 484.338 411.275 490.758 417.573 496.487C425.06 503.299 433.038 509.589 440.415 516.523C443.354 519.286 445.771 522.536 448.811 525.197C460.229 535.189 473.27 542.131 483.121 554.032C486.258 557.452 488.643 561.389 490.676 565.544Q492.17 568.565 493.464 571.677Q494.758 574.789 495.846 577.978Q496.935 581.167 497.814 584.421Q498.693 587.674 499.359 590.978Q500.024 594.282 500.473 597.622Q500.922 600.962 501.153 604.324Q501.384 607.686 501.396 611.056Q501.408 614.426 501.2 617.79C501.103 619.655 501.652 622.579 500.924 624.217C500.608 624.929 499.553 625.491 498.935 625.909C495.357 628.335 491.067 629.921 487.345 632.193L451.494 654.376C444.456 658.806 434.082 667.158 426.577 669.323C414.991 657.012 400.923 646.625 388.062 635.708C380.382 629.188 373.383 621.771 365.599 615.409C353.745 605.72 341.041 597.117 331.537 584.875C327.71 579.947 324.68 573.883 322.398 568.1C319.352 560.38 317.914 552.658 315.649 544.748L309.428 522.475C308.328 518.487 306.782 514.283 306.178 510.197C305.502 505.628 306.019 500.517 305.97 495.873L305.748 462.958C305.783 451.654 304.628 439.445 306.081 428.276C310.475 423.003 312.754 419.826 319.747 418.605Z"/>
</svg>